{
  "source": "C:\\Users\\Peter\\Desktop\\stuff\\MIUN\\quantitative_research\\video_compression\\videos\\BVI-HD\\BVI-HD_CDVL_videos\\ORIG\\Hamster_1920x1080_60fps.mp4",
  "output": "C:\\Users\\Peter\\Desktop\\stuff\\MIUN\\quantitative_research\\video_compression\\compressed_videos\\BVI-HD\\h264\\3\\Hamster_1920x1080_60fps_h264.mp4",
  "codec": "h264",
  "ok": "Input #0, mov,mp4,m4a,3gp,3g2,mj2, from 'C:\\Users\\Peter\\Desktop\\stuff\\MIUN\\quantitative_research\\video_compression\\videos\\BVI-HD\\BVI-HD_CDVL_videos\\ORIG\\Hamster_1920x1080_60fps.mp4':\n  Metadata:\n    major_brand     : isom\n    minor_version   : 512\n    compatible_brands: isomiso2avc1mp41\n    encoder         : Lavf54.28.101\n  Duration: 00:00:05.00, start: 0.000000, bitrate: 208485 kb/s\n  Stream #0:0[0x1](und): Video: h264 (High 4:4:4 Predictive) (avc1 / 0x31637661), yuv420p(progressive), 1920x1080, 208481 kb/s, 60 fps, 60 tbr, 60 tbn (default)\n    Metadata:\n      handler_name    : VideoHandler\n      vendor_id       : [0][0][0][0]\n[out#0/mp4 @ 000002299da8ee80] Codec AVOption b:a (set bitrate (in bits/s)) has not been used for any stream. The most likely reason is either wrong type (e.g. a video option with no video streams) or that it is a private option of some decoder which was not actually used for any stream.\nStream mapping:\n  Stream #0:0 -> #0:0 (h264 (native) -> h264 (libx264))\nPress [q] to stop, [?] for help\n[libx264 @ 000002299e17ac00] using cpu capabilities: MMX2 SSE2Fast SSSE3 SSE4.2 AVX FMA3 BMI2 AVX2\n[libx264 @ 000002299e17ac00] profile High, level 5.0, 4:2:0, 8-bit\n[libx264 @ 000002299e17ac00] 264 - core 165 r3222 b35605a - H.264/MPEG-4 AVC codec - Copyleft 2003-2025 - http://www.videolan.org/x264.html - options: cabac=1 ref=5 deblock=1:0:0 analyse=0x3:0x113 me=hex subme=8 psy=1 psy_rd=1.00:0.00 mixed_ref=1 me_range=16 chroma_me=1 trellis=2 8x8dct=1 cqm=0 deadzone=21,11 fast_pskip=1 chroma_qp_offset=-2 threads=18 lookahead_threads=3 sliced_threads=0 nr=0 decimate=1 interlaced=0 bluray_compat=0 constrained_intra=0 bframes=3 b_pyramid=2 b_adapt=1 b_bias=0 direct=3 weightb=1 open_gop=0 weightp=2 keyint=250 keyint_min=25 scenecut=40 intra_refresh=0 rc_lookahead=50 rc=cbr mbtree=1 bitrate=3000 ratetol=1.0 qcomp=0.60 qpmin=0 qpmax=69 qpstep=4 vbv_maxrate=3000 vbv_bufsize=3000 nal_hrd=none filler=0 ip_ratio=1.40 aq=1:1.00\nOutput #0, mp4, to 'C:\\Users\\Peter\\Desktop\\stuff\\MIUN\\quantitative_research\\video_compression\\compressed_videos\\BVI-HD\\h264\\3\\Hamster_1920x1080_60fps_h264.mp4':\n  Metadata:\n    major_brand     : isom\n    minor_version   : 512\n    compatible_brands: isomiso2avc1mp41\n    encoder         : Lavf62.3.100\n  Stream #0:0(und): Video: h264 (avc1 / 0x31637661), yuv420p(tv, progressive), 1920x1080, q=2-31, 3000 kb/s, 60 fps, 15360 tbn (default)\n    Metadata:\n      encoder         : Lavc62.11.100 libx264\n      handler_name    : VideoHandler\n      vendor_id       : [0][0][0][0]\n    Side data:\n      cpb: bitrate max/min/avg: 3000000/0/3000000 buffer size: 3000000 vbv_delay: N/A\nframe=    0 fps=0.0 q=0.0 size=       0KiB time=N/A bitrate=N/A speed=N/A elapsed=0:00:00.52    \nframe=    0 fps=0.0 q=0.0 size=       0KiB time=N/A bitrate=N/A speed=N/A elapsed=0:00:01.30    \nframe=    8 fps=3.7 q=36.0 size=       0KiB time=N/A bitrate=N/A speed=N/A elapsed=0:00:02.14    \nframe=   32 fps= 11 q=35.0 size=       0KiB time=00:00:00.38 bitrate=   1.0kbits/s speed=0.132x elapsed=0:00:02.90    \nframe=   56 fps= 15 q=36.0 size=     256KiB time=00:00:00.83 bitrate=2517.0kbits/s speed=0.224x elapsed=0:00:03.72    \nframe=   70 fps= 16 q=36.0 size=     256KiB time=00:00:01.13 bitrate=1850.8kbits/s speed=0.255x elapsed=0:00:04.43    \nframe=   90 fps= 18 q=36.0 size=     256KiB time=00:00:01.46 bitrate=1430.1kbits/s speed=0.288x elapsed=0:00:05.08    \nframe=  124 fps= 22 q=37.0 size=     512KiB time=00:00:01.80 bitrate=2330.4kbits/s speed=0.316x elapsed=0:00:05.70    \nframe=  149 fps= 23 q=37.0 size=     768KiB time=00:00:02.38 bitrate=2639.9kbits/s speed=0.367x elapsed=0:00:06.49    \nframe=  176 fps= 24 q=37.0 size=    1024KiB time=00:00:02.75 bitrate=3050.5kbits/s speed=0.38x elapsed=0:00:07.24    \nframe=  205 fps= 26 q=39.0 size=    1024KiB time=00:00:03.30 bitrate=2542.1kbits/s speed=0.413x elapsed=0:00:07.98    \nframe=  224 fps= 26 q=40.0 size=    1280KiB time=00:00:03.70 bitrate=2834.1kbits/s speed=0.426x elapsed=0:00:08.67    \nframe=  234 fps= 25 q=37.0 size=    1280KiB time=00:00:03.86 bitrate=2711.9kbits/s speed=0.417x elapsed=0:00:09.26    \nframe=  271 fps= 28 q=39.0 size=    1536KiB time=00:00:04.48 bitrate=2806.7kbits/s speed=0.457x elapsed=0:00:09.81    \n[mp4 @ 000002299d9f9a80] Starting second pass: moving the moov atom to the beginning of the file\n[out#0/mp4 @ 000002299da8ee80] video:1846KiB audio:0KiB subtitle:0KiB other streams:0KiB global headers:0KiB muxing overhead: 0.235683%\nframe=  300 fps= 29 q=-1.0 Lsize=    1850KiB time=00:00:04.96 bitrate=3051.9kbits/s speed=0.485x elapsed=0:00:10.24    \n[libx264 @ 000002299e17ac00] frame I:2     Avg QP:32.13  size: 28414\n[libx264 @ 000002299e17ac00] frame P:76    Avg QP:34.98  size: 10489\n[libx264 @ 000002299e17ac00] frame B:222   Avg QP:37.86  size:  4664\n[libx264 @ 000002299e17ac00] consecutive B-frames:  1.0%  0.0%  3.0% 96.0%\n[libx264 @ 000002299e17ac00] mb I  I16..4: 11.7% 84.2%  4.1%\n[libx264 @ 000002299e17ac00] mb P  I16..4:  2.8% 12.5%  0.2%  P16..4: 19.5%  1.9%  1.0%  0.0%  0.0%    skip:62.1%\n[libx264 @ 000002299e17ac00] mb B  I16..4:  0.4%  1.5%  0.0%  B16..8: 20.9%  1.6%  0.1%  direct: 0.5%  skip:75.0%  L0:52.3% L1:46.1% BI: 1.6%\n[libx264 @ 000002299e17ac00] 8x8 transform intra:80.2% inter:94.2%\n[libx264 @ 000002299e17ac00] direct mvs  spatial:95.5% temporal:4.5%\n[libx264 @ 000002299e17ac00] coded y,uvDC,uvAC intra: 25.3% 46.5% 11.8% inter: 2.2% 4.8% 0.1%\n[libx264 @ 000002299e17ac00] i16 v,h,dc,p: 29% 29%  7% 35%\n[libx264 @ 000002299e17ac00] i8 v,h,dc,ddl,ddr,vr,hd,vl,hu: 18% 12% 33%  4%  7%  6%  8%  4%  6%\n[libx264 @ 000002299e17ac00] i4 v,h,dc,ddl,ddr,vr,hd,vl,hu: 13% 14% 20%  9% 13%  8% 12%  5%  6%\n[libx264 @ 000002299e17ac00] i8c dc,h,v,p: 67% 15% 11%  7%\n[libx264 @ 000002299e17ac00] Weighted P-Frames: Y:0.0% UV:0.0%\n[libx264 @ 000002299e17ac00] ref P L0: 46.0% 10.2% 21.9%  9.7% 12.2%\n[libx264 @ 000002299e17ac00] ref B L0: 69.5% 20.0%  8.2%  2.2%\n[libx264 @ 000002299e17ac00] ref B L1: 91.2%  8.8%\n[libx264 @ 000002299e17ac00] kb/s:3023.19\n",
  "seconds": 11.262568473815918,
  "probe_out": {}
}